Unna-Bold Italic.ufo
<glyph name="dollar" format="1">
  <advance width="448"/>
  <unicode hex="0024"/>
  <outline>
    <contour>
      <point x="152" y="475"/>
      <point x="94" y="414"/>
      <point x="94" y="336" type="curve" smooth="yes"/>
      <point x="94" y="289"/>
      <point x="121" y="259"/>
      <point x="194" y="239" type="curve" smooth="yes"/>
      <point x="232" y="228" type="line" smooth="yes"/>
      <point x="263" y="219"/>
      <point x="275" y="210"/>
      <point x="275" y="192" type="curve" smooth="yes"/>
      <point x="275" y="163"/>
      <point x="250" y="149"/>
      <point x="220" y="149" type="curve" smooth="yes"/>
      <point x="155" y="149"/>
      <point x="105" y="185"/>
      <point x="112" y="238" type="curve"/>
      <point x="79" y="237" type="line"/>
      <point x="60" y="131" type="line"/>
      <point x="66" y="134"/>
      <point x="75" y="136"/>
      <point x="87" y="136" type="curve" smooth="yes"/>
      <point x="120" y="136"/>
      <point x="159" y="115"/>
      <point x="212" y="115" type="curve" smooth="yes"/>
      <point x="311" y="115"/>
      <point x="382" y="170"/>
      <point x="382" y="264" type="curve" smooth="yes"/>
      <point x="382" y="307"/>
      <point x="362" y="343"/>
      <point x="279" y="362" type="curve" smooth="yes"/>
      <point x="243" y="370" type="line" smooth="yes"/>
      <point x="218" y="375"/>
      <point x="209" y="387"/>
      <point x="209" y="403" type="curve" smooth="yes"/>
      <point x="209" y="427"/>
      <point x="231" y="442"/>
      <point x="261" y="442" type="curve" smooth="yes"/>
      <point x="323" y="442"/>
      <point x="352" y="407"/>
      <point x="347" y="373" type="curve"/>
      <point x="377" y="373" type="line"/>
      <point x="394" y="464" type="line"/>
      <point x="387" y="460"/>
      <point x="376" y="458"/>
      <point x="368" y="458" type="curve" smooth="yes"/>
      <point x="336" y="458"/>
      <point x="307" y="475"/>
      <point x="256" y="475" type="curve" smooth="yes"/>
    </contour>
    <contour>
      <point x="189" y="129" type="line"/>
      <point x="158" y="-95" type="line"/>
      <point x="205" y="-95" type="line"/>
      <point x="236" y="129" type="line"/>
    </contour>
    <contour>
      <point x="262" y="647" type="line"/>
      <point x="236" y="462" type="line"/>
      <point x="282" y="458" type="line"/>
      <point x="309" y="647" type="line"/>
    </contour>
  </outline>
</glyph>
<glyph name="six" format="1">
  <advance width="507"/>
  <unicode hex="0036"/>
  <outline>
    <contour>
      <point x="28" y="341"/>
      <point x="28" y="188" type="curve" smooth="yes"/>
      <point x="28" y="59"/>
      <point x="100" y="-11"/>
      <point x="234" y="-11" type="curve" smooth="yes"/>
      <point x="421" y="-11"/>
      <point x="494" y="121"/>
      <point x="494" y="232" type="curve" smooth="yes"/>
      <point x="494" y="336"/>
      <point x="427" y="393"/>
      <point x="299" y="393" type="curve" smooth="yes"/>
      <point x="235" y="393"/>
      <point x="178" y="360"/>
      <point x="152" y="314" type="curve"/>
      <point x="185" y="301" type="line"/>
      <point x="205" y="444"/>
      <point x="248" y="568"/>
      <point x="339" y="568" type="curve" smooth="yes"/>
      <point x="376" y="568"/>
      <point x="387" y="551"/>
      <point x="387" y="535" type="curve" smooth="yes"/>
      <point x="387" y="514"/>
      <point x="370" y="498"/>
      <point x="370" y="473" type="curve" smooth="yes"/>
      <point x="370" y="448"/>
      <point x="396" y="432"/>
      <point x="434" y="432" type="curve" smooth="yes"/>
      <point x="474" y="432"/>
      <point x="512" y="454"/>
      <point x="512" y="505" type="curve" smooth="yes"/>
      <point x="512" y="567"/>
      <point x="435" y="607"/>
      <point x="343" y="607" type="curve" smooth="yes"/>
      <point x="84" y="607"/>
    </contour>
    <contour>
      <point x="167" y="360"/>
      <point x="284" y="360" type="curve" smooth="yes"/>
      <point x="336" y="360"/>
      <point x="350" y="314"/>
      <point x="350" y="260" type="curve" smooth="yes"/>
      <point x="350" y="190"/>
      <point x="338" y="21"/>
      <point x="236" y="21" type="curve" smooth="yes"/>
      <point x="185" y="21"/>
      <point x="165" y="74"/>
      <point x="165" y="139" type="curve" smooth="yes"/>
      <point x="165" y="198"/>
    </contour>
  </outline>
</glyph>
<glyph name="B" format="1">
  <advance width="584"/>
  <unicode hex="0042"/>
  <outline>
    <contour>
      <point x="89" y="597" type="line"/>
      <point x="83" y="557" type="line"/>
      <point x="130" y="559" type="line"/>
      <point x="141" y="559"/>
      <point x="145" y="548"/>
      <point x="144" y="539" type="curve" smooth="yes"/>
      <point x="76" y="59" type="line" smooth="yes"/>
      <point x="74" y="45"/>
      <point x="68" y="37"/>
      <point x="57" y="37" type="curve"/>
      <point x="10" y="39" type="line"/>
      <point x="5" y="0" type="line"/>
      <point x="312" y="0" type="line" smooth="yes"/>
      <point x="476" y="0"/>
      <point x="557" y="64"/>
      <point x="557" y="179" type="curve" smooth="yes"/>
      <point x="557" y="259"/>
      <point x="494" y="317"/>
      <point x="407" y="317" type="curve"/>
      <point x="500" y="333"/>
      <point x="566" y="390"/>
      <point x="566" y="476" type="curve" smooth="yes"/>
      <point x="566" y="556"/>
      <point x="512" y="597"/>
      <point x="411" y="597" type="curve" smooth="yes"/>
    </contour>
    <contour>
      <point x="377" y="292"/>
      <point x="402" y="265"/>
      <point x="402" y="199" type="curve" smooth="yes"/>
      <point x="402" y="86"/>
      <point x="352" y="38"/>
      <point x="282" y="38" type="curve" smooth="yes"/>
      <point x="240" y="38" type="line" smooth="yes"/>
      <point x="231" y="38"/>
      <point x="227" y="42"/>
      <point x="228" y="51" type="curve" smooth="yes"/>
      <point x="262" y="292" type="line"/>
      <point x="329" y="292" type="line" smooth="yes"/>
    </contour>
    <contour>
      <point x="386" y="559"/>
      <point x="411" y="535"/>
      <point x="411" y="476" type="curve" smooth="yes"/>
      <point x="411" y="382"/>
      <point x="384" y="330"/>
      <point x="311" y="330" type="curve" smooth="yes"/>
      <point x="267" y="330" type="line"/>
      <point x="298" y="547" type="line"/>
      <point x="300" y="555"/>
      <point x="305" y="559"/>
      <point x="312" y="559" type="curve" smooth="yes"/>
      <point x="343" y="559" type="line" smooth="yes"/>
    </contour>
  </outline>
</glyph>
<glyph name="E" format="1">
  <advance width="573"/>
  <unicode hex="0045"/>
  <outline>
    <contour>
      <point x="550" y="597"/>
      <point x="544" y="597"/>
      <point x="536" y="597" type="curve" smooth="yes"/>
      <point x="89" y="597" type="line"/>
      <point x="83" y="557" type="line"/>
      <point x="117" y="559" type="line" smooth="yes"/>
      <point x="129" y="560"/>
      <point x="135" y="550"/>
      <point x="134" y="538" type="curve"/>
      <point x="66" y="59" type="line" smooth="yes"/>
      <point x="64" y="44"/>
      <point x="57" y="37"/>
      <point x="45" y="37" type="curve"/>
      <point x="11" y="40" type="line"/>
      <point x="5" y="0" type="line"/>
      <point x="401" y="0" type="line" smooth="yes"/>
      <point x="444" y="0"/>
      <point x="484" y="-1"/>
      <point x="499" y="-3" type="curve"/>
      <point x="524" y="179" type="line"/>
      <point x="487" y="179" type="line"/>
      <point x="474" y="88"/>
      <point x="419" y="38"/>
      <point x="328" y="38" type="curve" smooth="yes"/>
      <point x="228" y="38" type="line" smooth="yes"/>
      <point x="220" y="38"/>
      <point x="217" y="42"/>
      <point x="218" y="51" type="curve" smooth="yes"/>
      <point x="251" y="287" type="line"/>
      <point x="315" y="287" type="line" smooth="yes"/>
      <point x="356" y="287"/>
      <point x="385" y="245"/>
      <point x="378" y="190" type="curve"/>
      <point x="415" y="190" type="line"/>
      <point x="448" y="426" type="line"/>
      <point x="411" y="426" type="line"/>
      <point x="402" y="362"/>
      <point x="365" y="325"/>
      <point x="321" y="325" type="curve" smooth="yes"/>
      <point x="257" y="325" type="line"/>
      <point x="288" y="545" type="line" smooth="yes"/>
      <point x="289" y="554"/>
      <point x="294" y="559"/>
      <point x="302" y="559" type="curve" smooth="yes"/>
      <point x="369" y="559" type="line" smooth="yes"/>
      <point x="468" y="559"/>
      <point x="506" y="525"/>
      <point x="494" y="443" type="curve"/>
      <point x="531" y="443" type="line"/>
      <point x="553" y="598" type="line"/>
    </contour>
    <contour>
      <point x="458" y="14" type="move" name="ogonek"/>
    </contour>
    <contour>
      <point x="232" y="0" type="move" name="bottom"/>
    </contour>
    <contour>
      <point x="342" y="598" type="move" name="top"/>
    </contour>
  </outline>
</glyph>
<glyph name="G" format="1">
  <advance width="653"/>
  <unicode hex="0047"/>
  <outline>
    <contour>
      <point x="172" y="607"/>
      <point x="34" y="478"/>
      <point x="34" y="245" type="curve" smooth="yes"/>
      <point x="34" y="75"/>
      <point x="137" y="-10"/>
      <point x="304" y="-10" type="curve" smooth="yes"/>
      <point x="432" y="-10"/>
      <point x="488" y="37"/>
      <point x="541" y="37" type="curve" smooth="yes"/>
      <point x="549" y="37"/>
      <point x="556" y="36"/>
      <point x="561" y="35" type="curve"/>
      <point x="586" y="214" type="line"/>
      <point x="588" y="225"/>
      <point x="597" y="236"/>
      <point x="608" y="235" type="curve" smooth="yes"/>
      <point x="638" y="233" type="line"/>
      <point x="643" y="272" type="line"/>
      <point x="363" y="272" type="line"/>
      <point x="358" y="233" type="line"/>
      <point x="417" y="235" type="line" smooth="yes"/>
      <point x="430" y="235"/>
      <point x="435" y="228"/>
      <point x="433" y="213" type="curve" smooth="yes"/>
      <point x="413" y="69" type="line"/>
      <point x="382" y="37"/>
      <point x="352" y="27"/>
      <point x="319" y="27" type="curve" smooth="yes"/>
      <point x="240" y="27"/>
      <point x="197" y="86"/>
      <point x="197" y="211" type="curve" smooth="yes"/>
      <point x="197" y="425"/>
      <point x="272" y="572"/>
      <point x="410" y="572" type="curve" smooth="yes"/>
      <point x="510" y="572"/>
      <point x="557" y="524"/>
      <point x="549" y="443" type="curve" smooth="yes"/>
      <point x="548" y="435"/>
      <point x="548" y="431"/>
      <point x="545" y="423" type="curve"/>
      <point x="599" y="423" type="line"/>
      <point x="603" y="482"/>
      <point x="606" y="510"/>
      <point x="619" y="564" type="curve"/>
      <point x="573" y="564"/>
      <point x="505" y="607"/>
      <point x="399" y="607" type="curve" smooth="yes"/>
    </contour>
    <contour>
      <point x="385" y="598" type="move" name="top"/>
    </contour>
    <contour>
      <point x="305" y="0" type="move" name="bottom"/>
    </contour>
  </outline>
</glyph>
<glyph name="H" format="1">
  <advance width="696"/>
  <unicode hex="0048"/>
  <outline>
    <contour>
      <point x="441" y="597" type="line"/>
      <point x="435" y="557" type="line"/>
      <point x="485" y="559" type="line" smooth="yes"/>
      <point x="500" y="560"/>
      <point x="502" y="549"/>
      <point x="501" y="538" type="curve"/>
      <point x="470" y="322" type="line"/>
      <point x="256" y="322" type="line"/>
      <point x="287" y="538" type="line"/>
      <point x="288" y="550"/>
      <point x="297" y="560"/>
      <point x="310" y="559" type="curve"/>
      <point x="358" y="557" type="line"/>
      <point x="364" y="597" type="line"/>
      <point x="89" y="597" type="line"/>
      <point x="83" y="557" type="line"/>
      <point x="118" y="559" type="line" smooth="yes"/>
      <point x="133" y="560"/>
      <point x="135" y="549"/>
      <point x="134" y="538" type="curve"/>
      <point x="66" y="59" type="line" smooth="yes"/>
      <point x="64" y="44"/>
      <point x="57" y="36"/>
      <point x="44" y="37" type="curve" smooth="yes"/>
      <point x="10" y="39" type="line"/>
      <point x="5" y="0" type="line"/>
      <point x="280" y="0" type="line"/>
      <point x="285" y="39" type="line"/>
      <point x="236" y="37" type="line"/>
      <point x="223" y="37"/>
      <point x="217" y="44"/>
      <point x="219" y="59" type="curve" smooth="yes"/>
      <point x="251" y="284" type="line"/>
      <point x="465" y="284" type="line"/>
      <point x="433" y="59" type="line" smooth="yes"/>
      <point x="431" y="44"/>
      <point x="424" y="37"/>
      <point x="411" y="37" type="curve"/>
      <point x="362" y="39" type="line"/>
      <point x="357" y="0" type="line"/>
      <point x="631" y="0" type="line"/>
      <point x="636" y="39" type="line"/>
      <point x="602" y="37" type="line" smooth="yes"/>
      <point x="589" y="36"/>
      <point x="584" y="44"/>
      <point x="586" y="59" type="curve" smooth="yes"/>
      <point x="654" y="538" type="line"/>
      <point x="655" y="550"/>
      <point x="663" y="560"/>
      <point x="676" y="559" type="curve" smooth="yes"/>
      <point x="709" y="557" type="line"/>
      <point x="715" y="597" type="line"/>
    </contour>
    <contour>
      <point x="356" y="299" type="move" name="center"/>
    </contour>
    <contour>
      <point x="397" y="598" type="move" name="top"/>
    </contour>
  </outline>
</glyph>
<glyph name="J" format="1">
  <advance width="461"/>
  <unicode hex="004A"/>
  <outline>
    <contour>
      <point x="191" y="597" type="line"/>
      <point x="185" y="557" type="line"/>
      <point x="255" y="559" type="line"/>
      <point x="266" y="560"/>
      <point x="272" y="550"/>
      <point x="271" y="538" type="curve"/>
      <point x="220" y="179" type="line" smooth="yes"/>
      <point x="204" y="66"/>
      <point x="177" y="26"/>
      <point x="123" y="26" type="curve" smooth="yes"/>
      <point x="61" y="26"/>
      <point x="56" y="117"/>
      <point x="64" y="172" type="curve"/>
      <point x="18" y="172" type="line"/>
      <point x="-6" y="-1" type="line"/>
      <point x="2" y="6"/>
      <point x="19" y="5"/>
      <point x="30" y="5" type="curve" smooth="yes"/>
      <point x="57" y="5"/>
      <point x="91" y="-10"/>
      <point x="143" y="-10" type="curve" smooth="yes"/>
      <point x="277" y="-10"/>
      <point x="355" y="51"/>
      <point x="373" y="179" type="curve" smooth="yes"/>
      <point x="424" y="539" type="line"/>
      <point x="425" y="550"/>
      <point x="434" y="560"/>
      <point x="447" y="559" type="curve" smooth="yes"/>
      <point x="479" y="557" type="line"/>
      <point x="485" y="597" type="line"/>
    </contour>
    <contour>
      <point x="337" y="598" type="move" name="top"/>
    </contour>
  </outline>
</glyph>
<glyph name="M" format="1">
  <advance width="893"/>
  <unicode hex="004D"/>
  <outline>
    <contour>
      <point x="707" y="597" type="line"/>
      <point x="456" y="175" type="line"/>
      <point x="315" y="597" type="line"/>
      <point x="91" y="597" type="line"/>
      <point x="85" y="557" type="line"/>
      <point x="128" y="559" type="line"/>
      <point x="135" y="559"/>
      <point x="137" y="558"/>
      <point x="137" y="553" type="curve"/>
      <point x="67" y="59" type="line" smooth="yes"/>
      <point x="65" y="44"/>
      <point x="57" y="37"/>
      <point x="44" y="37" type="curve"/>
      <point x="5" y="39" type="line"/>
      <point x="0" y="0" type="line"/>
      <point x="171" y="0" type="line"/>
      <point x="176" y="39" type="line"/>
      <point x="127" y="37" type="line"/>
      <point x="114" y="37"/>
      <point x="109" y="44"/>
      <point x="111" y="59" type="curve" smooth="yes"/>
      <point x="176" y="527" type="line"/>
      <point x="359" y="-10" type="line"/>
      <point x="393" y="-10" type="line"/>
      <point x="692" y="498" type="line"/>
      <point x="630" y="59" type="line" smooth="yes"/>
      <point x="628" y="44"/>
      <point x="620" y="37"/>
      <point x="607" y="37" type="curve"/>
      <point x="558" y="39" type="line"/>
      <point x="553" y="0" type="line"/>
      <point x="828" y="0" type="line"/>
      <point x="833" y="39" type="line"/>
      <point x="799" y="37" type="line" smooth="yes"/>
      <point x="786" y="36"/>
      <point x="780" y="44"/>
      <point x="782" y="59" type="curve" smooth="yes"/>
      <point x="850" y="539" type="line"/>
      <point x="851" y="550"/>
      <point x="861" y="560"/>
      <point x="873" y="559" type="curve" smooth="yes"/>
      <point x="901" y="557" type="line"/>
      <point x="907" y="597" type="line"/>
    </contour>
  </outline>
</glyph>
<glyph name="f" format="1">
  <advance width="306"/>
  <unicode hex="0066"/>
  <outline>
    <contour>
      <point x="121" y="430" type="line"/>
      <point x="49" y="430" type="line"/>
      <point x="34" y="389" type="line"/>
      <point x="113" y="389" type="line"/>
    </contour>
    <contour>
      <point x="239" y="389" type="line"/>
      <point x="297" y="389" type="line"/>
      <point x="315" y="405" type="line"/>
      <point x="315" y="430" type="line"/>
      <point x="245" y="430" type="line"/>
    </contour>
    <contour>
      <point x="251" y="454" type="line"/>
      <point x="264" y="652"/>
      <point x="302" y="693"/>
      <point x="334" y="693" type="curve" smooth="yes"/>
      <point x="350" y="693"/>
      <point x="358" y="684"/>
      <point x="358" y="667" type="curve" smooth="yes"/>
      <point x="358" y="644"/>
      <point x="341" y="626"/>
      <point x="341" y="606" type="curve" smooth="yes"/>
      <point x="341" y="584"/>
      <point x="362" y="568"/>
      <point x="396" y="568" type="curve" smooth="yes"/>
      <point x="453" y="568"/>
      <point x="475" y="611"/>
      <point x="475" y="642" type="curve" smooth="yes"/>
      <point x="475" y="689"/>
      <point x="423" y="730"/>
      <point x="345" y="730" type="curve" smooth="yes"/>
      <point x="208" y="730"/>
      <point x="122" y="606"/>
      <point x="103" y="440" type="curve" smooth="yes"/>
      <point x="62" y="72" type="line"/>
      <point x="49" y="-123"/>
      <point x="29" y="-208"/>
      <point x="-16" y="-208" type="curve" smooth="yes"/>
      <point x="-27" y="-208"/>
      <point x="-43" y="-203"/>
      <point x="-43" y="-177" type="curve" smooth="yes"/>
      <point x="-43" y="-150"/>
      <point x="-26" y="-138"/>
      <point x="-26" y="-116" type="curve" smooth="yes"/>
      <point x="-26" y="-90"/>
      <point x="-49" y="-77"/>
      <point x="-80" y="-77" type="curve" smooth="yes"/>
      <point x="-135" y="-77"/>
      <point x="-160" y="-117"/>
      <point x="-160" y="-152" type="curve" smooth="yes"/>
      <point x="-160" y="-204"/>
      <point x="-104" y="-245"/>
      <point x="-30" y="-245" type="curve" smooth="yes"/>
      <point x="114" y="-245"/>
      <point x="188" y="-88"/>
      <point x="212" y="102" type="curve" smooth="yes"/>
    </contour>
  </outline>
</glyph>
<glyph name="g" format="1">
  <advance width="498"/>
  <unicode hex="0067"/>
  <outline>
    <contour>
      <point x="77" y="119" type="line" smooth="yes"/>
      <point x="35" y="86"/>
      <point x="18" y="57"/>
      <point x="18" y="27" type="curve" smooth="yes"/>
      <point x="18" y="-45"/>
      <point x="115" y="-57"/>
      <point x="200" y="-70" type="curve" smooth="yes"/>
      <point x="267" y="-80"/>
      <point x="326" y="-91"/>
      <point x="326" y="-131" type="curve" smooth="yes"/>
      <point x="326" y="-169"/>
      <point x="271" y="-209"/>
      <point x="181" y="-209" type="curve" smooth="yes"/>
      <point x="108" y="-209"/>
      <point x="78" y="-183"/>
      <point x="78" y="-146" type="curve" smooth="yes"/>
      <point x="78" y="-103"/>
      <point x="117" y="-59"/>
      <point x="150" y="-51" type="curve"/>
      <point x="106" y="-44" type="line"/>
      <point x="21" y="-68"/>
      <point x="-29" y="-107"/>
      <point x="-29" y="-156" type="curve" smooth="yes"/>
      <point x="-29" y="-213"/>
      <point x="38" y="-245"/>
      <point x="168" y="-245" type="curve" smooth="yes"/>
      <point x="338" y="-245"/>
      <point x="457" y="-190"/>
      <point x="457" y="-86" type="curve" smooth="yes"/>
      <point x="457" y="9"/>
      <point x="357" y="31"/>
      <point x="268" y="45" type="curve" smooth="yes"/>
      <point x="197" y="56"/>
      <point x="134" y="62"/>
      <point x="134" y="97" type="curve" smooth="yes"/>
      <point x="134" y="111"/>
      <point x="145" y="126"/>
      <point x="159" y="137" type="curve"/>
      <point x="119" y="152" type="line"/>
    </contour>
    <contour>
      <point x="122" y="437"/>
      <point x="42" y="343"/>
      <point x="42" y="243" type="curve" smooth="yes"/>
      <point x="42" y="177"/>
      <point x="92" y="126"/>
      <point x="207" y="126" type="curve" smooth="yes"/>
      <point x="380" y="126"/>
      <point x="460" y="219"/>
      <point x="460" y="320" type="curve" smooth="yes"/>
      <point x="460" y="386"/>
      <point x="411" y="437"/>
      <point x="297" y="437" type="curve" smooth="yes"/>
    </contour>
    <contour>
      <point x="299" y="405"/>
      <point x="313" y="387"/>
      <point x="313" y="341" type="curve" smooth="yes"/>
      <point x="313" y="310"/>
      <point x="310" y="271"/>
      <point x="299" y="239" type="curve" smooth="yes"/>
      <point x="285" y="194"/>
      <point x="263" y="158"/>
      <point x="226" y="158" type="curve" smooth="yes"/>
      <point x="202" y="158"/>
      <point x="188" y="175"/>
      <point x="188" y="222" type="curve" smooth="yes"/>
      <point x="188" y="253"/>
      <point x="193" y="291"/>
      <point x="203" y="324" type="curve" smooth="yes"/>
      <point x="216" y="368"/>
      <point x="239" y="405"/>
      <point x="278" y="405" type="curve" smooth="yes"/>
    </contour>
    <contour>
      <point x="432" y="512"/>
      <point x="384" y="469"/>
      <point x="345" y="422" type="curve"/>
      <point x="376" y="411" type="line"/>
      <point x="396" y="438"/>
      <point x="422" y="450"/>
      <point x="437" y="450" type="curve" smooth="yes"/>
      <point x="466" y="450"/>
      <point x="455" y="410"/>
      <point x="497" y="410" type="curve" smooth="yes"/>
      <point x="538" y="410"/>
      <point x="550" y="445"/>
      <point x="550" y="464" type="curve" smooth="yes"/>
      <point x="550" y="498"/>
      <point x="523" y="512"/>
      <point x="491" y="512" type="curve" smooth="yes"/>
    </contour>
    <contour>
      <point x="272" y="420" type="move" name="top"/>
    </contour>
  </outline>
</glyph>
<glyph name="j" format="1">
  <advance width="270"/>
  <unicode hex="006A"/>
  <outline>
    <contour>
      <point x="135" y="661"/>
      <point x="94" y="631"/>
      <point x="94" y="584" type="curve" smooth="yes"/>
      <point x="94" y="549"/>
      <point x="124" y="526"/>
      <point x="170" y="526" type="curve" smooth="yes"/>
      <point x="224" y="526"/>
      <point x="265" y="555"/>
      <point x="265" y="604" type="curve" smooth="yes"/>
      <point x="265" y="639"/>
      <point x="234" y="661"/>
      <point x="188" y="661" type="curve" smooth="yes"/>
    </contour>
    <component base="dotlessj"/>
  </outline>
</glyph>
<glyph name="q" format="1">
  <advance width="487"/>
  <unicode hex="0071"/>
  <outline>
    <contour>
      <point x="339" y="423" type="line"/>
      <point x="332" y="405" type="line"/>
      <point x="317" y="427"/>
      <point x="290" y="437"/>
      <point x="264" y="437" type="curve" smooth="yes"/>
      <point x="119" y="437"/>
      <point x="9" y="279"/>
      <point x="9" y="112" type="curve" smooth="yes"/>
      <point x="9" y="36"/>
      <point x="56" y="-10"/>
      <point x="111" y="-10" type="curve" smooth="yes"/>
      <point x="175" y="-10"/>
      <point x="256" y="38"/>
      <point x="305" y="184" type="curve"/>
      <point x="285" y="66"/>
      <point x="263" y="-74"/>
      <point x="248" y="-185" type="curve" smooth="yes"/>
      <point x="246" y="-198"/>
      <point x="242" y="-204"/>
      <point x="234" y="-205" type="curve"/>
      <point x="203" y="-203" type="line"/>
      <point x="198" y="-239" type="line"/>
      <point x="456" y="-239" type="line"/>
      <point x="461" y="-203" type="line"/>
      <point x="398" y="-205" type="line" smooth="yes"/>
      <point x="392" y="-205"/>
      <point x="389" y="-201"/>
      <point x="389" y="-192" type="curve" smooth="yes"/>
      <point x="389" y="-158"/>
      <point x="436" y="233"/>
      <point x="488" y="436" type="curve"/>
    </contour>
    <contour>
      <point x="171" y="75"/>
      <point x="159" y="95"/>
      <point x="159" y="133" type="curve" smooth="yes"/>
      <point x="159" y="167"/>
      <point x="165" y="206"/>
      <point x="176" y="244" type="curve" smooth="yes"/>
      <point x="201" y="337"/>
      <point x="243" y="397"/>
      <point x="285" y="397" type="curve" smooth="yes"/>
      <point x="312" y="397"/>
      <point x="325" y="378"/>
      <point x="325" y="355" type="curve" smooth="yes"/>
      <point x="325" y="259"/>
      <point x="233" y="75"/>
      <point x="189" y="75" type="curve" smooth="yes"/>
    </contour>
  </outline>
</glyph>
<glyph name="s" format="1">
  <advance width="402"/>
  <unicode hex="0073"/>
  <outline>
    <contour>
      <point x="50" y="160"/>
      <point x="245" y="163"/>
      <point x="246" y="82" type="curve"/>
      <point x="364" y="136" type="line"/>
      <point x="361" y="265"/>
      <point x="167" y="264"/>
      <point x="164" y="345" type="curve"/>
      <point x="47" y="292" type="line"/>
    </contour>
    <contour>
      <point x="24" y="152"/>
      <point x="0" y="119"/>
      <point x="0" y="84" type="curve" smooth="yes"/>
      <point x="0" y="31"/>
      <point x="66" y="-10"/>
      <point x="160" y="-10" type="curve" smooth="yes"/>
      <point x="268" y="-10"/>
      <point x="366" y="32"/>
      <point x="364" y="136" type="curve"/>
      <point x="246" y="82" type="line"/>
      <point x="247" y="54"/>
      <point x="221" y="27"/>
      <point x="167" y="27" type="curve" smooth="yes"/>
      <point x="133" y="27"/>
      <point x="111" y="40"/>
      <point x="111" y="63" type="curve" smooth="yes"/>
      <point x="111" y="81"/>
      <point x="125" y="88"/>
      <point x="125" y="111" type="curve" smooth="yes"/>
      <point x="125" y="146"/>
      <point x="96" y="152"/>
      <point x="73" y="152" type="curve" smooth="yes"/>
    </contour>
    <contour>
      <point x="138" y="437"/>
      <point x="45" y="393"/>
      <point x="47" y="292" type="curve"/>
      <point x="164" y="345" type="line"/>
      <point x="165" y="374"/>
      <point x="187" y="400"/>
      <point x="226" y="400" type="curve" smooth="yes"/>
      <point x="259" y="400"/>
      <point x="285" y="387"/>
      <point x="285" y="364" type="curve" smooth="yes"/>
      <point x="285" y="346"/>
      <point x="272" y="337"/>
      <point x="272" y="315" type="curve" smooth="yes"/>
      <point x="272" y="291"/>
      <point x="294" y="275"/>
      <point x="327" y="275" type="curve" smooth="yes"/>
      <point x="365" y="275"/>
      <point x="391" y="305"/>
      <point x="391" y="343" type="curve" smooth="yes"/>
      <point x="391" y="396"/>
      <point x="324" y="437"/>
      <point x="233" y="437" type="curve" smooth="yes"/>
    </contour>
    <contour>
      <point x="230" y="420" type="move" name="top"/>
    </contour>
    <contour>
      <point x="163" y="0" type="move" name="bottom"/>
    </contour>
  </outline>
</glyph>
<glyph name="currency" format="1">
  <advance width="443"/>
  <unicode hex="00A4"/>
  <outline>
    <contour>
      <point x="155" y="435"/>
      <point x="58" y="354"/>
      <point x="58" y="246" type="curve" smooth="yes"/>
      <point x="58" y="163"/>
      <point x="118" y="94"/>
      <point x="205" y="94" type="curve" smooth="yes"/>
      <point x="303" y="94"/>
      <point x="402" y="174"/>
      <point x="402" y="284" type="curve" smooth="yes"/>
      <point x="402" y="366"/>
      <point x="342" y="435"/>
      <point x="253" y="435" type="curve" smooth="yes"/>
    </contour>
    <contour>
      <point x="23" y="112" type="line"/>
      <point x="51" y="79" type="line"/>
      <point x="114" y="134" type="line"/>
      <point x="85" y="167" type="line"/>
    </contour>
    <contour>
      <point x="308" y="133" type="line"/>
      <point x="354" y="78" type="line"/>
      <point x="392" y="111" type="line"/>
      <point x="345" y="166" type="line"/>
    </contour>
    <contour>
      <point x="312" y="393"/>
      <point x="359" y="342"/>
      <point x="359" y="279" type="curve" smooth="yes"/>
      <point x="359" y="202"/>
      <point x="288" y="136"/>
      <point x="211" y="136" type="curve" smooth="yes"/>
      <point x="146" y="136"/>
      <point x="99" y="187"/>
      <point x="99" y="250" type="curve" smooth="yes"/>
      <point x="99" y="327"/>
      <point x="170" y="393"/>
      <point x="247" y="393" type="curve" smooth="yes"/>
    </contour>
    <contour>
      <point x="66" y="415" type="line"/>
      <point x="112" y="362" type="line"/>
      <point x="150" y="395" type="line"/>
      <point x="104" y="448" type="line"/>
    </contour>
    <contour>
      <point x="346" y="394" type="line"/>
      <point x="374" y="361" type="line"/>
      <point x="435" y="414" type="line"/>
      <point x="407" y="447" type="line"/>
    </contour>
  </outline>
</glyph>
<glyph name="logicalnot" format="1">
  <advance width="460"/>
  <unicode hex="00AC"/>
  <outline>
    <contour>
      <point x="41" y="360" type="line"/>
      <point x="33" y="309" type="line"/>
      <point x="400" y="309" type="line"/>
      <point x="378" y="146" type="line"/>
      <point x="431" y="146" type="line"/>
      <point x="461" y="360" type="line"/>
    </contour>
  </outline>
</glyph>
<glyph name="macron" format="1">
  <advance width="442"/>
  <unicode hex="00AF"/>
  <outline>
    <contour>
      <point x="157" y="607" type="line"/>
      <point x="150" y="557" type="line"/>
      <point x="389" y="557" type="line"/>
      <point x="396" y="607" type="line"/>
    </contour>
    <contour>
      <point x="253" y="420" type="move" name="_top"/>
    </contour>
  </outline>
</glyph>
<glyph name="uni00B2" format="1">
  <advance width="303"/>
  <unicode hex="00B2"/>
  <outline>
    <contour>
      <point x="297" y="487"/>
      <point x="283" y="474"/>
      <point x="255" y="474" type="curve" smooth="yes"/>
      <point x="83" y="474" type="line"/>
      <point x="76" y="466" type="line"/>
      <point x="201" y="500" type="line" smooth="yes"/>
      <point x="285" y="522"/>
      <point x="347" y="557"/>
      <point x="347" y="609" type="curve" smooth="yes"/>
      <point x="347" y="657"/>
      <point x="289" y="678"/>
      <point x="209" y="678" type="curve" smooth="yes"/>
      <point x="111" y="678"/>
      <point x="64" y="646"/>
      <point x="64" y="603" type="curve" smooth="yes"/>
      <point x="64" y="580"/>
      <point x="78" y="560"/>
      <point x="116" y="560" type="curve" smooth="yes"/>
      <point x="147" y="560"/>
      <point x="178" y="574"/>
      <point x="178" y="604" type="curve" smooth="yes"/>
      <point x="178" y="612"/>
      <point x="175" y="619"/>
      <point x="175" y="627" type="curve" smooth="yes"/>
      <point x="175" y="644"/>
      <point x="188" y="654"/>
      <point x="207" y="654" type="curve" smooth="yes"/>
      <point x="221" y="654"/>
      <point x="231" y="640"/>
      <point x="231" y="620" type="curve" smooth="yes"/>
      <point x="231" y="569"/>
      <point x="201" y="537"/>
      <point x="147" y="514" type="curve" smooth="yes"/>
      <point x="54" y="474" type="line"/>
      <point x="48" y="403" type="line"/>
      <point x="263" y="403" type="line" smooth="yes"/>
      <point x="276" y="403"/>
      <point x="298" y="402"/>
      <point x="302" y="401" type="curve"/>
      <point x="306" y="418"/>
      <point x="316" y="470"/>
      <point x="327" y="500" type="curve"/>
      <point x="301" y="500" type="line"/>
    </contour>
  </outline>
</glyph>
<glyph name="cedilla" format="1">
  <advance width="227"/>
  <unicode hex="00B8"/>
  <outline>
    <contour>
      <point x="67" y="0" type="line"/>
      <point x="19" y="-52" type="line"/>
      <point x="13" y="-57"/>
      <point x="11" y="-61"/>
      <point x="11" y="-66" type="curve" smooth="yes"/>
      <point x="11" y="-71"/>
      <point x="14" y="-75"/>
      <point x="20" y="-80" type="curve"/>
      <point x="41" y="-94" type="line"/>
      <point x="55" y="-102"/>
      <point x="70" y="-115"/>
      <point x="70" y="-130" type="curve" smooth="yes"/>
      <point x="70" y="-153"/>
      <point x="41" y="-176"/>
      <point x="15" y="-176" type="curve" smooth="yes"/>
      <point x="0" y="-176"/>
      <point x="-11" y="-172"/>
      <point x="-18" y="-163" type="curve"/>
      <point x="-38" y="-198" type="line"/>
      <point x="-17" y="-213"/>
      <point x="12" y="-214"/>
      <point x="29" y="-214" type="curve" smooth="yes"/>
      <point x="83" y="-214"/>
      <point x="166" y="-185"/>
      <point x="166" y="-116" type="curve" smooth="yes"/>
      <point x="166" y="-59"/>
      <point x="76" y="-77"/>
      <point x="76" y="-53" type="curve" smooth="yes"/>
      <point x="76" y="-49"/>
      <point x="79" y="-41"/>
      <point x="84" y="-33" type="curve"/>
      <point x="110" y="0" type="line"/>
    </contour>
    <contour>
      <point x="84" y="0" type="move" name="_bottom"/>
    </contour>
  </outline>
</glyph>
<glyph name="Eth" format="1">
  <advance width="643"/>
  <unicode hex="00D0"/>
  <outline>
    <contour>
      <point x="390" y="283" type="line"/>
      <point x="396" y="329" type="line"/>
      <point x="56" y="329" type="line"/>
      <point x="50" y="283" type="line"/>
    </contour>
    <component base="D"/>
  </outline>
</glyph>
<glyph name="lacute" format="1">
  <advance width="269"/>
  <unicode hex="013A"/>
  <outline>
    <contour>
      <point x="331" y="856"/>
      <point x="298" y="882"/>
      <point x="275" y="882" type="curve" smooth="yes"/>
      <point x="260" y="882"/>
      <point x="250" y="874"/>
      <point x="226" y="857" type="curve" smooth="yes"/>
      <point x="120" y="780" type="line" smooth="yes"/>
      <point x="101" y="766"/>
      <point x="97" y="762"/>
      <point x="97" y="753" type="curve" smooth="yes"/>
      <point x="97" y="747"/>
      <point x="100" y="744"/>
      <point x="106" y="744" type="curve" smooth="yes"/>
      <point x="114" y="744"/>
      <point x="125" y="749"/>
      <point x="136" y="753" type="curve" smooth="yes"/>
      <point x="314" y="822" type="line" smooth="yes"/>
      <point x="329" y="828"/>
      <point x="331" y="833"/>
      <point x="331" y="840" type="curve" smooth="yes"/>
    </contour>
    <component base="l"/>
  </outline>
</glyph>
<glyph name="breve" format="1">
  <advance width="319"/>
  <unicode hex="02D8"/>
  <outline>
    <contour>
      <point x="307" y="642" type="line"/>
      <point x="295" y="611"/>
      <point x="264" y="578"/>
      <point x="210" y="578" type="curve" smooth="yes"/>
      <point x="153" y="578"/>
      <point x="136" y="611"/>
      <point x="132" y="642" type="curve"/>
      <point x="84" y="642" type="line"/>
      <point x="73" y="563"/>
      <point x="119" y="508"/>
      <point x="200" y="508" type="curve" smooth="yes"/>
      <point x="281" y="508"/>
      <point x="344" y="563"/>
      <point x="355" y="642" type="curve"/>
    </contour>
    <contour>
      <point x="190" y="420" type="move" name="_top"/>
    </contour>
  </outline>
</glyph>
<glyph name="hungarumlaut" format="1">
  <advance width="323"/>
  <unicode hex="02DD"/>
  <outline>
    <contour>
      <point x="308" y="653"/>
      <point x="306" y="652"/>
      <point x="299" y="644" type="curve" smooth="yes"/>
      <point x="294" y="638"/>
      <point x="281" y="619"/>
      <point x="210" y="513" type="curve"/>
      <point x="207" y="508"/>
      <point x="205" y="503"/>
      <point x="205" y="500" type="curve" smooth="yes"/>
      <point x="205" y="496"/>
      <point x="208" y="491"/>
      <point x="215" y="491" type="curve" smooth="yes"/>
      <point x="222" y="491"/>
      <point x="229" y="494"/>
      <point x="244" y="506" type="curve" smooth="yes"/>
      <point x="346" y="588"/>
      <point x="364" y="603"/>
      <point x="374" y="612" type="curve"/>
      <point x="379" y="617"/>
      <point x="382" y="622"/>
      <point x="382" y="625" type="curve" smooth="yes"/>
      <point x="382" y="641"/>
      <point x="332" y="653"/>
      <point x="313" y="653" type="curve" smooth="yes"/>
    </contour>
    <contour>
      <point x="178" y="653"/>
      <point x="176" y="652"/>
      <point x="169" y="644" type="curve" smooth="yes"/>
      <point x="164" y="638"/>
      <point x="151" y="619"/>
      <point x="80" y="513" type="curve"/>
      <point x="78" y="509"/>
      <point x="75" y="504"/>
      <point x="75" y="500" type="curve" smooth="yes"/>
      <point x="75" y="496"/>
      <point x="78" y="491"/>
      <point x="85" y="491" type="curve" smooth="yes"/>
      <point x="92" y="491"/>
      <point x="99" y="494"/>
      <point x="114" y="506" type="curve" smooth="yes"/>
      <point x="216" y="588"/>
      <point x="234" y="603"/>
      <point x="244" y="612" type="curve"/>
      <point x="249" y="617"/>
      <point x="252" y="622"/>
      <point x="252" y="625" type="curve" smooth="yes"/>
      <point x="252" y="641"/>
      <point x="202" y="653"/>
      <point x="183" y="653" type="curve" smooth="yes"/>
    </contour>
    <contour>
      <point x="175" y="420" type="move" name="_top"/>
    </contour>
  </outline>
</glyph>
<glyph name="Euro" format="1">
  <advance width="491"/>
  <unicode hex="20AC"/>
  <outline>
    <contour>
      <point x="169" y="607"/>
      <point x="51" y="462"/>
      <point x="51" y="239" type="curve" smooth="yes"/>
      <point x="51" y="85"/>
      <point x="129" y="-10"/>
      <point x="266" y="-10" type="curve" smooth="yes"/>
      <point x="340" y="-10"/>
      <point x="402" y="35"/>
      <point x="453" y="35" type="curve" smooth="yes"/>
      <point x="459" y="35" type="line"/>
      <point x="459" y="47" type="line" smooth="yes"/>
      <point x="459" y="82"/>
      <point x="466" y="112"/>
      <point x="480" y="167" type="curve"/>
      <point x="442" y="167" type="line"/>
      <point x="419" y="88"/>
      <point x="365" y="27"/>
      <point x="307" y="27" type="curve" smooth="yes"/>
      <point x="250" y="27"/>
      <point x="216" y="91"/>
      <point x="216" y="211" type="curve" smooth="yes"/>
      <point x="216" y="416"/>
      <point x="278" y="572"/>
      <point x="379" y="572" type="curve" smooth="yes"/>
      <point x="434" y="572"/>
      <point x="475" y="509"/>
      <point x="475" y="433" type="curve"/>
      <point x="509" y="433" type="line"/>
      <point x="509" y="448"/>
      <point x="513" y="510"/>
      <point x="527" y="564" type="curve"/>
      <point x="464" y="564"/>
      <point x="448" y="607"/>
      <point x="356" y="607" type="curve" smooth="yes"/>
    </contour>
    <contour>
      <point x="18" y="257" type="line"/>
      <point x="2" y="216" type="line"/>
      <point x="393" y="216" type="line"/>
      <point x="409" y="257" type="line"/>
    </contour>
    <contour>
      <point x="34" y="371" type="line"/>
      <point x="18" y="330" type="line"/>
      <point x="409" y="330" type="line"/>
      <point x="425" y="371" type="line"/>
    </contour>
  </outline>
</glyph>
<glyph name="estimated" format="1">
  <advance width="676"/>
  <unicode hex="212E"/>
  <outline>
    <contour>
      <point x="167" y="607"/>
      <point x="55" y="495"/>
      <point x="55" y="299" type="curve" smooth="yes"/>
      <point x="55" y="106"/>
      <point x="164" y="-11"/>
      <point x="357" y="-11" type="curve" smooth="yes"/>
      <point x="475" y="-11"/>
      <point x="567" y="37"/>
      <point x="615" y="120" type="curve"/>
      <point x="583" y="140" type="line"/>
      <point x="541" y="66"/>
      <point x="466" y="27"/>
      <point x="357" y="27" type="curve" smooth="yes"/>
      <point x="302" y="27"/>
      <point x="256" y="40"/>
      <point x="218" y="62" type="curve"/>
      <point x="218" y="299" type="line"/>
      <point x="650" y="299" type="line"/>
      <point x="650" y="489"/>
      <point x="545" y="607"/>
      <point x="353" y="607" type="curve" smooth="yes"/>
    </contour>
    <contour>
      <point x="405" y="569"/>
      <point x="451" y="557"/>
      <point x="487" y="534" type="curve"/>
      <point x="487" y="337" type="line"/>
      <point x="218" y="337" type="line"/>
      <point x="218" y="536" type="line"/>
      <point x="254" y="557"/>
      <point x="299" y="569"/>
      <point x="353" y="569" type="curve" smooth="yes"/>
    </contour>
  </outline>
</glyph>
<glyph name="caron.alt" format="1">
  <advance width="326"/>
  <outline>
    <contour>
      <point x="159" y="628"/>
      <point x="121" y="605"/>
      <point x="121" y="562" type="curve" smooth="yes"/>
      <point x="121" y="539"/>
      <point x="134" y="524"/>
      <point x="156" y="524" type="curve" smooth="yes"/>
      <point x="167" y="524"/>
      <point x="176" y="520"/>
      <point x="176" y="506" type="curve" smooth="yes"/>
      <point x="176" y="484"/>
      <point x="152" y="465"/>
      <point x="132" y="453" type="curve"/>
      <point x="151" y="428" type="line"/>
      <point x="203" y="452"/>
      <point x="264" y="506"/>
      <point x="264" y="565" type="curve" smooth="yes"/>
      <point x="264" y="603"/>
      <point x="237" y="628"/>
      <point x="198" y="628" type="curve" smooth="yes"/>
    </contour>
    <contour>
      <point x="190" y="588" type="move" name="_topright"/>
    </contour>
  </outline>
</glyph>
<glyph name="circumflex.narrow" format="1">
  <advance width="326"/>
  <outline>
    <contour>
      <point x="218" y="659"/>
      <point x="209" y="655"/>
      <point x="199" y="644" type="curve" smooth="yes"/>
      <point x="88" y="530" type="line" smooth="yes"/>
      <point x="77" y="518"/>
      <point x="69" y="509"/>
      <point x="69" y="503" type="curve" smooth="yes"/>
      <point x="69" y="497"/>
      <point x="72" y="493"/>
      <point x="79" y="493" type="curve" smooth="yes"/>
      <point x="83" y="493"/>
      <point x="94" y="497"/>
      <point x="106" y="503" type="curve"/>
      <point x="212" y="564" type="line"/>
      <point x="302" y="503" type="line"/>
      <point x="312" y="497"/>
      <point x="321" y="493"/>
      <point x="325" y="493" type="curve" smooth="yes"/>
      <point x="334" y="493"/>
      <point x="339" y="499"/>
      <point x="339" y="506" type="curve" smooth="yes"/>
      <point x="339" y="511"/>
      <point x="334" y="520"/>
      <point x="326" y="530" type="curve"/>
      <point x="249" y="644" type="line"/>
      <point x="241" y="654"/>
      <point x="235" y="659"/>
      <point x="226" y="659" type="curve" smooth="yes"/>
    </contour>
    <contour>
      <point x="195" y="420" type="move" name="_top"/>
    </contour>
  </outline>
</glyph>
<glyph name="f.ss02" format="1">
  <advance width="294"/>
  <outline>
    <contour>
      <point x="220" y="700"/>
      <point x="119" y="554"/>
      <point x="100" y="403" type="curve" smooth="yes"/>
      <point x="62" y="72" type="line"/>
      <point x="49" y="-123"/>
      <point x="29" y="-208"/>
      <point x="-16" y="-208" type="curve" smooth="yes"/>
      <point x="-27" y="-208"/>
      <point x="-43" y="-203"/>
      <point x="-43" y="-177" type="curve" smooth="yes"/>
      <point x="-43" y="-150"/>
      <point x="-26" y="-138"/>
      <point x="-26" y="-116" type="curve" smooth="yes"/>
      <point x="-26" y="-90"/>
      <point x="-49" y="-77"/>
      <point x="-80" y="-77" type="curve" smooth="yes"/>
      <point x="-135" y="-77"/>
      <point x="-160" y="-117"/>
      <point x="-160" y="-152" type="curve" smooth="yes"/>
      <point x="-160" y="-204"/>
      <point x="-104" y="-245"/>
      <point x="-30" y="-245" type="curve" smooth="yes"/>
      <point x="114" y="-245"/>
      <point x="191" y="-88"/>
      <point x="212" y="102" type="curve" smooth="yes"/>
      <point x="246" y="411" type="line"/>
      <point x="265" y="585"/>
      <point x="320" y="663"/>
      <point x="367" y="663" type="curve" smooth="yes"/>
      <point x="393" y="663"/>
      <point x="407" y="651"/>
      <point x="407" y="627" type="curve" smooth="yes"/>
      <point x="407" y="597"/>
      <point x="457" y="602"/>
      <point x="523" y="602" type="curve"/>
      <point x="523" y="654"/>
      <point x="463" y="700"/>
      <point x="375" y="700" type="curve" smooth="yes"/>
    </contour>
    <contour>
      <point x="49" y="430" type="line"/>
      <point x="34" y="389" type="line"/>
      <point x="113" y="389" type="line"/>
      <point x="121" y="430" type="line"/>
    </contour>
    <contour>
      <point x="245" y="430" type="line"/>
      <point x="239" y="389" type="line"/>
      <point x="297" y="389" type="line"/>
      <point x="315" y="405" type="line"/>
      <point x="315" y="430" type="line"/>
    </contour>
  </outline>
</glyph>
<glyph name="y.ss01" format="1">
  <advance width="420"/>
  <outline>
    <contour>
      <point x="308" y="438"/>
      <point x="279" y="412"/>
      <point x="279" y="374" type="curve" smooth="yes"/>
      <point x="279" y="339"/>
      <point x="294" y="320"/>
      <point x="323" y="320" type="curve" smooth="yes"/>
      <point x="343" y="320"/>
      <point x="363" y="313"/>
      <point x="363" y="285" type="curve" smooth="yes"/>
      <point x="363" y="234"/>
      <point x="318" y="175"/>
      <point x="262" y="115" type="curve"/>
      <point x="195" y="364" type="line"/>
      <point x="176" y="424"/>
      <point x="157" y="434"/>
      <point x="124" y="434" type="curve" smooth="yes"/>
      <point x="90" y="434"/>
      <point x="40" y="421"/>
      <point x="0" y="408" type="curve"/>
      <point x="6" y="372" type="line"/>
      <point x="16" y="374"/>
      <point x="24" y="375"/>
      <point x="29" y="375" type="curve" smooth="yes"/>
      <point x="42" y="375"/>
      <point x="48" y="366"/>
      <point x="57" y="342" type="curve"/>
      <point x="154" y="2" type="line"/>
      <point x="95" y="-65"/>
      <point x="47" y="-130"/>
      <point x="47" y="-182" type="curve" smooth="yes"/>
      <point x="47" y="-210"/>
      <point x="63" y="-244"/>
      <point x="114" y="-244" type="curve" smooth="yes"/>
      <point x="158" y="-244"/>
      <point x="184" y="-218"/>
      <point x="184" y="-190" type="curve" smooth="yes"/>
      <point x="184" y="-132"/>
      <point x="129" y="-156"/>
      <point x="129" y="-118" type="curve" smooth="yes"/>
      <point x="129" y="-75"/>
      <point x="203" y="-6"/>
      <point x="280" y="74" type="curve" smooth="yes"/>
      <point x="354" y="151"/>
      <point x="424" y="239"/>
      <point x="424" y="359" type="curve" smooth="yes"/>
      <point x="424" y="402"/>
      <point x="397" y="438"/>
      <point x="352" y="438" type="curve" smooth="yes"/>
    </contour>
    <contour>
      <point x="249" y="420" type="move" name="top"/>
    </contour>
  </outline>
</glyph>
